PathFileType	4	(X/Y/Z)	E:\Marcel_BSc\Ayumi_22_01_2025\22-01-2025\static_00.trc
DataRate	CameraRate	NumFrames	NumMarkers	Units	OrigDataRate	OrigDataStartFrame	OrigNumFrames
200.0	200.0	4	59	mm	200.0	52	352	
Frame#	Time	FHD			LBHD			RBHD			RBAR			LBAR			RASI			RSACR			LSACR			LASI			USACR			C7			CLAV			T10			RSHO			LSHO			LTHI1			LTHI3			LTHI2			LLFC			LMFC			LTIB1			LTIB2			LTIB3			LMMAL			LLMAL			LHEE			LMT1			LMT5			LMT3			RTHI1			RTHI2			RTHI3			RLFC			RMFC			RTIB1			RTIB3			RTIB2			RLMAL			RMMAL			RHEE			RMT5			RMT1			RMT3			LMEP			LLEP			LDUPA			LMUPA			LUUPA			LUL			LRAD			LRFIN			RUL			RRAD			RUFIN			RMEP			RLEP			RMUPA			RDUPA			RUUPA			
		X1	Y1	Z1	X2	Y2	Z2	X3	Y3	Z3	X4	Y4	Z4	X5	Y5	Z5	X6	Y6	Z6	X7	Y7	Z7	X8	Y8	Z8	X9	Y9	Z9	X10	Y10	Z10	X11	Y11	Z11	X12	Y12	Z12	X13	Y13	Z13	X14	Y14	Z14	X15	Y15	Z15	X16	Y16	Z16	X17	Y17	Z17	X18	Y18	Z18	X19	Y19	Z19	X20	Y20	Z20	X21	Y21	Z21	X22	Y22	Z22	X23	Y23	Z23	X24	Y24	Z24	X25	Y25	Z25	X26	Y26	Z26	X27	Y27	Z27	X28	Y28	Z28	X29	Y29	Z29	X30	Y30	Z30	X31	Y31	Z31	X32	Y32	Z32	X33	Y33	Z33	X34	Y34	Z34	X35	Y35	Z35	X36	Y36	Z36	X37	Y37	Z37	X38	Y38	Z38	X39	Y39	Z39	X40	Y40	Z40	X41	Y41	Z41	X42	Y42	Z42	X43	Y43	Z43	X44	Y44	Z44	X45	Y45	Z45	X46	Y46	Z46	X47	Y47	Z47	X48	Y48	Z48	X49	Y49	Z49	X50	Y50	Z50	X51	Y51	Z51	X52	Y52	Z52	X53	Y53	Z53	X54	Y54	Z54	X55	Y55	Z55	X56	Y56	Z56	X57	Y57	Z57	X58	Y58	Z58	X59	Y59	Z59	
52	0.25	109.80813	1612.2899	-968.57782	128.03204	1595.3004	-908.06982	146.04263	1583.9841	-1039.6958				1041.036	20.036093	-2031.5802	162.78822	927.27466	-1103.1576	322.91049	958.97156	-1016.0142	319.76575	960.76471	-942.00281	149.21553	912.41235	-866.1734	314.64218	971.06433	-979.79059	297.99988	1401.2999	-964.59729	163.27161	1329.6044	-981.52002	320.24908	1117.6348	-974.15149	237.03455	1406.2476	-1113.6383	216.74344	1398.7253	-831.4328	237.3373	606.56488	-807.93146	261.82523	546.09015	-819.16138	211.16048	545.88507	-818.33197	229.84024	449.4039	-841.08136	242.39374	442.1796	-939.68201	256.57764	233.60812	-819.68231	306.83173	232.47552	-815.63232	280.004	173.51451	-825.84717	284.29849	71.815216	-914.70599	297.86362	69.631142	-843.44373	340.97934	33.986317	-881.68262	143.86234	39.182205	-873.68042	169.42831	26.848557	-796.9892	144.845	37.229649	-837.74054	257.7811	608.02423	-1156.9526	229.9445	549.38885	-1149.4318	281.65717	547.67346	-1147.5231	240.24141	455.19998	-1125.6943	253.95078	451.2868	-1017.1295	271.45309	276.89517	-1159.9531	294.35233	215.26585	-1155.6332	322.1713	275.03964	-1160.8146	307.60654	73.576279	-1134.96	276.832	75.650818	-1064.0071	351.59323	28.403419	-1095.3617	178.77594	29.344133	-1179.4321	151.08939	37.730946	-1115.5334	156.15848	36.031628	-1148.2869	266.29001	1277.0055	-1374.8184	304.65417	1337.5662	-1378.0424	314.09195	1350.9287	-1278.1399	310.4957	1363.0074	-1217.7644	329.49866	1317.7333	-1208.0988	234.14818	1335.5586	-326.83432	170.51491	1353.8779	-319.59549	181.90985	1351.4008	-245.70998	284.10626	1338.4893	-1612.1753	223.88864	1354.2778	-1612.9034	223.13683	1351.4781	-1686.9835	204.65828	1278.8756	-580.86224	255.6703	1330.0448	-563.73334	254.29869	1361.9109	-644.64337	284.03311	1322.2673	-640.40796	270.10913	1368.0295	-704.58185
53	0.255	109.76991	1612.2805	-968.55945	127.96316	1595.2277	-908.12207	146.09694	1583.9478	-1039.1522				1040.9891	20.047115	-2031.5592	162.73601	927.31079	-1103.1151	322.87811	958.93054	-1016.017	319.7377	960.75104	-941.98553	149.17671	912.39191	-866.15814	314.63828	971.00494	-979.78424	297.99619	1401.2874	-964.62244	163.26886	1329.6212	-981.53162	320.24207	1117.6166	-974.12457	237.06149	1406.2258	-1113.6492	216.74338	1398.748	-831.4635	237.31207	606.56805	-807.91992	261.80795	546.1142	-819.16724	211.13457	545.89038	-818.3103	229.82616	449.41272	-841.07623	242.36769	442.18539	-939.67084	256.56583	233.59451	-819.67828	306.81253	232.49837	-815.63928	280.01486	173.53625	-825.85138	284.28802	71.80307	-914.72125	297.85983	69.628448	-843.44824	340.992	33.975807	-881.72968	143.88083	39.18832	-873.67926	169.42378	26.842436	-796.98792	144.83444	37.245148	-837.71881	257.77545	608.03107	-1156.9371	229.92082	549.39929	-1149.3873	281.62756	547.6449	-1147.5206	240.25107	455.1438	-1125.7068	247.99892	449.27264	-1024.4774	271.41888	276.90329	-1159.955	294.34729	215.27301	-1155.6338	322.16507	275.03094	-1160.8182	307.59927	73.579895	-1134.9652	276.83035	75.638817	-1064.0021	351.59195	28.40062	-1095.3571	178.77429	29.34741	-1179.4285	151.09743	37.714024	-1115.5411	156.16016	36.011948	-1148.2794	266.32996	1277.016	-1374.851	304.67883	1337.5704	-1378.0586	314.13638	1350.918	-1278.1208	310.52213	1362.9293	-1217.7805	329.51135	1317.6628	-1208.113	234.1954	1335.6273	-326.86053	170.51553	1354.1432	-319.64499	182.06885	1351.624	-245.6707	284.15149	1338.5385	-1612.1798	223.95787	1354.3442	-1612.9303	223.21764	1351.6117	-1686.9752	204.67726	1278.9524	-580.8692	255.6859	1330.1245	-563.75616	254.32008	1361.9609	-644.66235	284.04187	1322.3169	-640.4375	270.13483	1368.0547	-704.58905
54	0.26	109.71584	1612.2057	-968.62152	127.92534	1595.2616	-908.07397	146.05348	1583.9316	-1039.1608				1041.0299	20.037256	-2031.5676	162.72038	927.25452	-1103.1176	322.99335	959.63263	-1015.7448	319.71289	960.73669	-941.9798	149.1601	912.39557	-866.13	314.70328	970.83984	-979.77344	297.98331	1401.275	-964.64624	163.26553	1329.6234	-981.53748	320.22165	1117.6028	-974.10962	237.06531	1406.2025	-1113.6675	216.75674	1398.7515	-831.49146	237.29385	606.56628	-807.91284	261.75977	546.09045	-819.16882	211.08704	545.89246	-818.31342	229.81874	449.40097	-841.05914	242.35117	442.18954	-939.66101	256.55884	233.60907	-819.69354	306.82053	232.4816	-815.62787	280.02704	173.52878	-825.84595	284.31012	71.809448	-914.72479	297.86725	69.625305	-843.44977	340.9859	33.983707	-881.68274	143.86646	39.167332	-873.69495	169.43597	26.83724	-796.98975	144.8338	37.286346	-837.69751	257.74466	608.02728	-1156.9153	229.89636	549.35333	-1149.4352	281.60901	547.65619	-1147.5082	240.23247	455.1279	-1125.6987	253.91463	451.26978	-1017.1115	271.42377	276.9035	-1159.9532	294.32657	215.25923	-1155.6272	322.14798	275.04517	-1160.8267	307.59845	73.586113	-1134.9568	276.83237	75.63073	-1064.0068	351.60272	28.391741	-1095.3616	178.7888	29.303331	-1179.446	151.10133	37.71265	-1115.5448	156.17239	36.011192	-1148.2828	266.33493	1277.0033	-1374.8661	304.71237	1337.5275	-1378.0737	314.17422	1350.8448	-1278.1371	310.5434	1362.8647	-1217.807	329.52466	1317.5741	-1208.1478	234.23241	1335.6914	-326.87979	170.65477	1354.2257	-319.6004	182.01596	1351.7848	-245.73708	284.20428	1338.5961	-1612.1714	224.01277	1354.4446	-1612.9196	223.29373	1351.7034	-1686.9966	204.66812	1278.9994	-580.89056	255.68697	1330.1505	-563.7738	254.34172	1361.9971	-644.68726	284.0589	1322.3339	-640.45325	270.11545	1368.053	-704.64185
55	0.265	109.68023	1612.1749	-968.60211	127.88218	1595.1875	-908.09241	146.01712	1583.906	-1039.1776				1040.9684	20.053833	-2031.5292	162.6772	927.27698	-1103.1156	322.95682	959.65302	-1015.7321	319.69504	960.71301	-941.97076	149.12015	912.40051	-866.11292	314.69394	970.80121	-979.77179	297.97873	1401.2704	-964.67188	163.26335	1329.6038	-981.5661	320.18265	1117.6038	-974.09113	237.08066	1406.1711	-1113.6848	216.74365	1398.7437	-831.51361	237.24376	606.57104	-807.90094	261.75107	546.09003	-819.15076	211.0589	545.88898	-818.29523	229.79672	449.40277	-841.05414	243.15614	442.31445	-938.96307	256.56714	233.59251	-819.67926	306.80627	232.48497	-815.62689	280.00934	173.50473	-825.84753	284.34473	71.783241	-914.70032	297.86908	69.63002	-843.43671	340.98489	33.976833	-881.70074	143.86633	39.190948	-873.68347	169.43669	26.832729	-796.98395	144.84113	37.229649	-837.72504	257.71103	608.04602	-1156.8959	229.89067	549.33331	-1149.402	281.59622	547.65216	-1147.4828	240.20357	455.14923	-1125.6792	253.9146	451.24268	-1017.109	271.42795	276.89774	-1159.947	294.32599	215.26381	-1155.6326	322.32117	275.19009	-1161.0343	307.58084	73.598679	-1134.9753	276.8656	75.612854	-1064.0057	351.59503	28.419794	-1095.3569	178.78111	29.327177	-1179.422	151.09958	37.730869	-1115.5376	156.17389	35.992702	-1148.2837	266.3494	1277.0007	-1374.8912	304.72806	1337.5503	-1378.0828	314.19785	1350.8538	-1278.1195	310.56238	1362.8033	-1217.8313	329.54077	1317.5023	-1208.1592	234.26228	1335.7811	-326.89609	170.65414	1354.4451	-319.66089	182.12308	1351.8801	-245.72206	284.26779	1338.631	-1612.1661	224.06105	1354.5121	-1612.9298	223.36986	1351.8407	-1686.9836	204.67358	1279.0343	-580.89276	255.71791	1330.2131	-563.80066	254.34547	1362.0143	-644.71619	284.069	1322.3782	-640.48059	270.14767	1368.1058	-704.63965
